<svg xmlns="http://www.w3.org/2000/svg" viewBox="0 0 64 64">
<polygon points="32.00,42.37 43.62,49.08 32.00,55.79 20.38,49.08" fill="#b3a2cf"/>
<polygon points="43.62,49.08 32.00,55.79 32.00,61.47 43.62,54.76" fill="#8f7eac"/>
<polygon points="20.38,49.08 32.00,55.79 32.00,61.47 20.38,54.76" fill="#a493c1"/>
<polygon points="32.00,30.50 55.24,43.92 32.00,57.34 8.76,43.92" fill="#a9d6b3"/>
<polygon points="55.24,43.92 32.00,57.34 32.00,62.50 55.24,49.08" fill="#8fbf9b"/>
<polygon points="8.76,43.92 32.00,57.34 32.00,62.50 8.76,49.08" fill="#9ecbaa"/>
<polygon points="32.00,9.34 49.88,19.67 32.00,29.99 14.12,19.67" fill="#f4ecda"/>
<polygon points="49.88,19.67 32.00,29.99 32.00,54.24 49.88,43.92" fill="#e8dcc0"/>
<polygon points="14.12,19.67 32.00,29.99 32.00,54.24 14.12,43.92" fill="#efe4cd"/>
<polygon points="32.00,1.50 54.88,14.71 32.00,27.92 9.12,14.71" fill="#bcabe8"/>
<polygon points="54.88,14.71 32.00,27.92 32.00,32.88 54.88,19.67" fill="#9583cb"/>
<polygon points="9.12,14.71 32.00,27.92 32.00,32.88 9.12,19.67" fill="#a795d7"/>
<polygon points="32.00,3.87 42.37,9.86 32.00,15.85 21.63,9.86" fill="#d3c7f4"/>
<polygon points="42.37,9.86 32.00,15.85 32.00,20.70 42.37,14.71" fill="#a08ed6"/>
<polygon points="21.63,9.86 32.00,15.85 32.00,20.70 21.63,14.71" fill="#b5a4e2"/>
<polygon points="47.93,26.28 41.67,29.89 41.67,41.25 47.93,37.64" fill="#ffd36e"/>
<polygon points="40.24,30.72 33.98,34.33 33.98,45.69 40.24,42.07" fill="#ffd36e"/>
<polygon points="47.93,26.28 41.67,29.89 41.67,31.75 47.93,28.14" fill="#ffe6a8"/>
<polygon points="40.24,30.72 33.98,34.33 33.98,36.19 40.24,32.58" fill="#ffe6a8"/>
</svg>