<svg xmlns="http://www.w3.org/2000/svg" viewBox="6 45.1 99 83.7">
<!-- SVG created with Arrow, by QuiverAI (https://quiver.ai) -->
  <rect x="-10" y="45" width="115" height="83.9" fill="#020202"/>
  <path d="m82.5 45h-54.1c-9.3 5.7-22.4 20.4-22.4 40.8 0 17.9 10.5 34.5 23.9 43.2h50c13.1-6.9 25.1-23.4 25.1-43s-10.8-33.1-22.5-41z" fill="#020202"/>
  <path d="m56.8 127.8c0.3-0.6 0.9-2.8-0.8-5.4s-3.4-3.9-3.3-6.6c0.1-2.2 2.7-3.8 1.3-6.8-1.2-2.1-3.4-2.1-4.4-3.5-0.7-1 0.1-1.9 1.1-2 1.5 0.1 1.7-0.2 1.4-0.3-1.1-0.2-2.3 0.8-2.5 0l0.4 0.3m4 8.9c3.8-0.3 9.9-3.4 13.9-5.9 4.9-3.3 6.3-4.6 6.9-7.6 0.6-3.4 0.1-4.1 0.2-5.7 0.1-1.7 1.8-3.4 3.5-3.7 1.1-0.6 1.2-2 0.4-1.8-0.7 0.2-1.4 2.2-3.3 3.8-0.4 1.4-0.6 2 0.5 2.4 1.1 0.3 2.3-0.3 3.1-2.3 0.9-2 2.3-2.6 2.3-5.2-0.2-2 0.2-2.3 1.4-2.6 1.1-0.3 1.4-0.6 1-1.7-0.6-1.9 0-3.2 0.5-5.2 0.5-2.1 0.2-4-0.7-6-0.4-1.3 1.2 1.2 2 1.2 0.6-0.2 0.2-3.9-1.8-5.9-2.4-2.2-5.5-2.5-5.6-2.7-0.1-0.4 3.6-0.7 5.3-3.6 0.3-0.7-0.7 0.2-1.8 0.7-1.4 0.6-3.1 1-4.9 0.7-3.3-0.5-5.8-2.6-8.6-2.8-2.9-0.2-6.3 1.2-6.1 3 0.8 1 0.6 2.5 1.4 4 1.8 3.5 4.9 2.6 6.6 5.3 0.9 1.6 0.6 1.6 0.2 1.3-2-0.7-1.7-0.5-0.3 0.9 3 3.1 1.9 7.3 3 10.9 0.1 1.2-0.3 3.5 0.6 3.9 0.5 0.2 1-0.7 1.1-2.2 0.2-2.2 2-3.7 2.1-3.2" fill="none" stroke="#F7FAFB" stroke-linecap="round" stroke-miterlimit="10" stroke-width=".4612"/>
  <path d="m75.9 116.5c-1.5-1.5-2.2-2.5-1.8-7.1 0.8-7.4 1.2-9.2 0.1-14.8" fill="none" stroke="#F7FAFB" stroke-linecap="round" stroke-miterlimit="10" stroke-width=".4612"/>
  <path d="m77.1 59.8c-1.9-2.2-3.5-5.7-7-5.9-3-0.2-4.7 1.6-4.8 1.9-0.3 1.3-1.7 2.4-1.4 1.6 0.2-1.3 2-2.6 4.1-3.2m-1.6-0.1c-1-1-1.6-7.5-6.8-7.7-4-0.3-6.2 2.5-9.4 3.5-0.9 0.5-1.2 0.7-0.1 1.2 1.3 0.4 4.3 0.7 6.6 2.1 2.7 1.6 5.2 5.5 2.9 8-2.2 2-3.5 2.4-8.9-1.6-3-1.5-6.2 0-6.4 2.9-0.2 2.6 1.6 7.1-0.6 8.3-1.8 0.6-2.9-1.2-6.3 5.1" fill="none" stroke="#F7FAFB" stroke-linejoin="round" stroke-miterlimit="10" stroke-width=".4612"/>
  <path d="m64.7 54.6c-0.1 0.8-1 1.4 0.4-0.7 0.6-0.4 0-0.9-0.2-2.2-0.2-1.1-1-2.8 0.2-0.3l1.3 2.6m-10.1-1.9c1.7 1.1 2.6 4.8 2.3 7.5s0.6 2.9 2.5 2.3c0.7-0.3 1.3-0.3 1.3 0m-4.7 1.3c-2.5 1-8.8 2.4-12.6 3.8-3.3 0.9-4 3.1-4.7 4.7-1.4 4.1-0.8 4.4-1.5 7.3-1 2.2-2.2 3.4-2.5 2-0.4-1.5-0.8-0.1-1.1-0.4-1.7-1.5 1.4-3.1-0.7-3.9-2.7-0.6-4.7 2.2-5 2.4-0.5 0.1 0.3-2.2 1.7-3.6 1.6-1.6 4-2.9 4-3.1-0.4-0.2-1.6-0.2-3.1-1.4-1.8-1.4-3.8-2.6-6.1 0.4-0.4 0.5-0.5-0.2-0.5-1.7 0.4-4.5 4.5-4.5 7-6.1 2.6-1.5 3-2.1 2.1-1.6-3.6 1.2-5.6-1.6-5.5-5.6 0.2-2.5 0.9-1.5 1.4-0.2 1.3 3.2 1.8 4.2 4.8 3l4.2-1.6c2.3-0.9 0.8-0.7-0.6-1.2-2-0.8-3.2-2.5-3-2.4 0.6 0.4 2.2 1.5 5.4 0 2.7-1.1 2.7-1.9 1.7-4.1-0.5-1.3-1.8-3.9-1.5-3.9 0.8 1.4 3.3 3.2 6.6 3.6 3.4 0.3 6.4 0.3 8.7 3.5v0.4" fill="none" stroke="#F7FAFB" stroke-linecap="round" stroke-miterlimit="10" stroke-width=".4612"/>
  <path d="m78 81.4c-0.9 0.1-3 0.7-1.1-1.5l0.2 1.7c-1.4-0.2-6.3-2.7-9.9-3.9-0.6-0.1-1.6 0.2-1.8 1.5-0.2 3.6 0.7 7.2-4.8 8.5-4.4 1-6.6 0.2-8.2-3.3-1.4-3-0.4-4.7 1.9-6.2 2.6-1.6 7.6-2.8 10.7-1 1.1 0.7 1.1 0.4 2.6-0.3 0.5-0.3 0.5-0.3 1.3 0l8.6 3.9" fill="none" stroke="#F7FAFB" stroke-linecap="round" stroke-miterlimit="10" stroke-width=".4612"/>
  <path d="m66.4 76.7c-0.7-1.2-3-2.7-7.4-2.5-2.1 0-4.4 0.4-6 0.8-2.2 0.5-2 2.1-0.8 2.2 1.7 0 6.5-2.7 10.6-2.4 2.9 0.2 3.4 1.6 2.4 1.4l-1.3 0.3" fill="none" stroke="#F7FAFB" stroke-linejoin="round" stroke-miterlimit="10" stroke-width=".4612"/>
  <path d="m77.1 83.4c0.4-0.3 0.9-3 3.1-2.9 0.9 0 1.7 1 1.7 2.5 0.1 1 0.7 1 0.7 1m-35.4-3.9c0.6 0.6 1.1 1.4 0.6 1.8-0.9 0.7 0.4 0.7 0.4-1 0.5-0.4 1.4 0.2 1.2 0 1.2 0 1.6 1.2 2 2.2 1.6 4.9 4.5 5.8 8.3 4.8m-11.6 6.1c0.1 1.1 0.8 0.5 0.9 0.5m-0.3-0.3c0.9 0.3 2 0.3 1.9-0.2 2.1-0.5 2.4 0.4 3.7-0.1 1.3-0.7 0.4-2.2-2.4-2-1.9 0.2-3 2-0.5 2.1 1.5-0.6 2-1 0.5-0.5-0.9 0.6-1.8 1-1.2 2.1 0.7 1.8-0.8 2.4 0.1 2.5 1.3-0.5 1.3-1.5 4.8 0l1.2 0.5c1.3 0.3 2.2 0.5-0.9 1-4 0.3-5.5 0.3-7.5 1.5-0.7 0.3-0.8-0.1-0.2-1.9 0.7-1.5 1.4-1.5 2-1.2" fill="none" stroke="#F7FAFB" stroke-linecap="round" stroke-miterlimit="10" stroke-width=".4612"/>
  <path d="m51.4 80.1c-0.8-0.2-1.8-0.2-4 0.5-1 0.5-0.8 1-1.8 0.9-1.3-0.9-3-1-5.2-0.4-2.5 0.6-3.8 1.4-4.6 2-0.9 0.5-0.9 0.5-1.7 0.8-0.5 0.1-1.3 0.5-0.4 1.5 1.5-0.2 1.5 1 2.4 3.2 1.1 2.4 2.3 3.4 4.6 3.3 4.2-0.4 5.7-1.7 6.2-4.5 0.5-2.9 0.2-5.3-1.5-5.9" fill="none" stroke="#F7FAFB" stroke-linecap="round" stroke-miterlimit="10" stroke-width=".4612"/>
  <path d="m35.7 85.9c3.5 1.6 4.4 1.7 4.9 3.8 0.3 1.9 0 5.2 2.8 9.9 2.4 4.4 3.5 6 4.3 8 1.2 2.6 2 4.9 5.5 4.5" fill="none" stroke="#F7FAFB" stroke-linecap="round" stroke-miterlimit="10" stroke-width=".4612"/>
  <path d="m47.1 82.6c0.7-1.6 2.3-1.6 2.6-1.6 1.5 0 2 0.5 2.5 1.5-0.1-1.3 0.2-1.9 0.4-2.4-0.4 0.3-0.7 0.4-0.7 0.4-1.7-0.6-4.2 0.2-4.7 0.4-1.4-1.7-2.3-2.4-4.6-2.2-2.6 0.3-3.7 1.2-4.2 1.5 0 0.8-0.3 1.5-0.5 1.7 0.8-0.4 2-0.5 3-0.8-1.5 0.8-2.3 1.9-1.5 3.9 1.2 3.1 1 3-1.8 1.7l-2-0.9c-0.6-2.3 2.3-3.6 4-3.9" fill="none" stroke="#F7FAFB" stroke-miterlimit="10" stroke-width=".4612"/>
  <path d="m50 94.5c-1.2-0.3-3.4-1.1-2.6-3.6 0.9-2 1.2-3 1-5.7-0.2-1.1-0.6-2.2-1-2.1" fill="none" stroke="#F7FAFB" stroke-linecap="round" stroke-miterlimit="10" stroke-width=".4612"/>
</svg>